<svg width="245" height="329" viewBox="0 0 245 329" fill="none" xmlns="http://www.w3.org/2000/svg">
<rect x="2" y="167" width="54" height="109" rx="27" fill="url(#paint0_linear)"/>
<rect x="86" width="54" height="276" rx="27" fill="url(#paint1_linear)"/>
<rect x="170" y="81" width="54" height="195" rx="27" fill="url(#paint2_linear)"/>
<path d="M0.488 310.144C0.488 307.392 0.936 305.248 1.832 303.712C2.728 302.16 4.296 301.384 6.536 301.384C8.76 301.384 10.32 302.16 11.216 303.712C12.112 305.248 12.56 307.392 12.56 310.144C12.56 312.944 12.112 315.12 11.216 316.672C10.32 318.224 8.76 319 6.536 319C4.296 319 2.728 318.224 1.832 316.672C0.936 315.12 0.488 312.944 0.488 310.144ZM10.4 310.144C10.4 308.752 10.304 307.576 10.112 306.616C9.936 305.64 9.56 304.856 8.984 304.264C8.424 303.672 7.608 303.376 6.536 303.376C5.448 303.376 4.616 303.672 4.04 304.264C3.48 304.856 3.104 305.64 2.912 306.616C2.736 307.576 2.648 308.752 2.648 310.144C2.648 311.584 2.736 312.792 2.912 313.768C3.104 314.744 3.48 315.528 4.04 316.12C4.616 316.712 5.448 317.008 6.536 317.008C7.608 317.008 8.424 316.712 8.984 316.12C9.56 315.528 9.936 314.744 10.112 313.768C10.304 312.792 10.4 311.584 10.4 310.144Z" fill="#E6A501"/>
<path d="M107.051 309.976C106.155 309.624 105.467 309.112 104.987 308.44C104.507 307.768 104.267 306.952 104.267 305.992C104.267 305.128 104.483 304.352 104.915 303.664C105.347 302.96 105.987 302.408 106.835 302.008C107.699 301.592 108.739 301.384 109.955 301.384C111.171 301.384 112.203 301.592 113.051 302.008C113.915 302.408 114.563 302.96 114.995 303.664C115.443 304.352 115.667 305.128 115.667 305.992C115.667 306.92 115.419 307.736 114.923 308.44C114.427 309.128 113.747 309.64 112.883 309.976C113.875 310.28 114.659 310.816 115.235 311.584C115.827 312.336 116.123 313.248 116.123 314.32C116.123 315.36 115.867 316.272 115.355 317.056C114.843 317.824 114.115 318.424 113.171 318.856C112.243 319.272 111.171 319.48 109.955 319.48C108.739 319.48 107.667 319.272 106.739 318.856C105.827 318.424 105.115 317.824 104.603 317.056C104.091 316.272 103.835 315.36 103.835 314.32C103.835 313.248 104.123 312.328 104.699 311.56C105.275 310.792 106.059 310.264 107.051 309.976ZM113.555 306.256C113.555 305.28 113.235 304.528 112.595 304C111.955 303.472 111.075 303.208 109.955 303.208C108.851 303.208 107.979 303.472 107.339 304C106.699 304.528 106.379 305.288 106.379 306.28C106.379 307.176 106.707 307.896 107.363 308.44C108.035 308.984 108.899 309.256 109.955 309.256C111.027 309.256 111.891 308.984 112.547 308.44C113.219 307.88 113.555 307.152 113.555 306.256ZM109.955 310.936C108.771 310.936 107.803 311.216 107.051 311.776C106.299 312.32 105.923 313.144 105.923 314.248C105.923 315.272 106.283 316.096 107.003 316.72C107.739 317.344 108.723 317.656 109.955 317.656C111.187 317.656 112.163 317.344 112.883 316.72C113.603 316.096 113.963 315.272 113.963 314.248C113.963 313.176 113.595 312.36 112.859 311.8C112.123 311.224 111.155 310.936 109.955 310.936ZM119.023 310.144C119.023 307.392 119.471 305.248 120.367 303.712C121.263 302.16 122.831 301.384 125.071 301.384C127.295 301.384 128.855 302.16 129.751 303.712C130.647 305.248 131.095 307.392 131.095 310.144C131.095 312.944 130.647 315.12 129.751 316.672C128.855 318.224 127.295 319 125.071 319C122.831 319 121.263 318.224 120.367 316.672C119.471 315.12 119.023 312.944 119.023 310.144ZM128.935 310.144C128.935 308.752 128.839 307.576 128.647 306.616C128.471 305.64 128.095 304.856 127.519 304.264C126.959 303.672 126.143 303.376 125.071 303.376C123.983 303.376 123.151 303.672 122.575 304.264C122.015 304.856 121.639 305.64 121.447 306.616C121.271 307.576 121.183 308.752 121.183 310.144C121.183 311.584 121.271 312.792 121.447 313.768C121.639 314.744 122.015 315.528 122.575 316.12C123.151 316.712 123.983 317.008 125.071 317.008C126.143 317.008 126.959 316.712 127.519 316.12C128.095 315.528 128.471 314.744 128.647 313.768C128.839 312.792 128.935 311.584 128.935 310.144Z" fill="#E6A501"/>
<path d="M218.702 314.344C218.862 315.256 219.23 315.96 219.806 316.456C220.398 316.952 221.19 317.2 222.182 317.2C223.51 317.2 224.486 316.68 225.11 315.64C225.75 314.6 226.054 312.848 226.022 310.384C225.686 311.104 225.126 311.672 224.342 312.088C223.558 312.488 222.686 312.688 221.726 312.688C220.654 312.688 219.694 312.472 218.846 312.04C218.014 311.592 217.358 310.944 216.878 310.096C216.398 309.248 216.158 308.224 216.158 307.024C216.158 305.312 216.654 303.936 217.646 302.896C218.638 301.84 220.046 301.312 221.87 301.312C224.11 301.312 225.678 302.04 226.574 303.496C227.486 304.952 227.942 307.12 227.942 310C227.942 312.016 227.758 313.68 227.39 314.992C227.038 316.304 226.43 317.304 225.566 317.992C224.718 318.68 223.55 319.024 222.062 319.024C220.43 319.024 219.158 318.584 218.246 317.704C217.334 316.824 216.814 315.704 216.686 314.344H218.702ZM222.086 310.84C223.158 310.84 224.038 310.512 224.726 309.856C225.414 309.184 225.758 308.28 225.758 307.144C225.758 305.944 225.422 304.976 224.75 304.24C224.078 303.504 223.134 303.136 221.918 303.136C220.798 303.136 219.902 303.488 219.23 304.192C218.574 304.896 218.246 305.824 218.246 306.976C218.246 308.144 218.574 309.08 219.23 309.784C219.886 310.488 220.838 310.84 222.086 310.84ZM231.011 310.144C231.011 307.392 231.459 305.248 232.355 303.712C233.251 302.16 234.819 301.384 237.059 301.384C239.283 301.384 240.843 302.16 241.739 303.712C242.635 305.248 243.083 307.392 243.083 310.144C243.083 312.944 242.635 315.12 241.739 316.672C240.843 318.224 239.283 319 237.059 319C234.819 319 233.251 318.224 232.355 316.672C231.459 315.12 231.011 312.944 231.011 310.144ZM240.923 310.144C240.923 308.752 240.827 307.576 240.635 306.616C240.459 305.64 240.083 304.856 239.507 304.264C238.947 303.672 238.131 303.376 237.059 303.376C235.971 303.376 235.139 303.672 234.563 304.264C234.003 304.856 233.627 305.64 233.435 306.616C233.259 307.576 233.171 308.752 233.171 310.144C233.171 311.584 233.259 312.792 233.435 313.768C233.627 314.744 234.003 315.528 234.563 316.12C235.139 316.712 235.971 317.008 237.059 317.008C238.131 317.008 238.947 316.712 239.507 316.12C240.083 315.528 240.459 314.744 240.635 313.768C240.827 312.792 240.923 311.584 240.923 310.144Z" fill="#E6A501"/>
<defs>
<linearGradient id="paint0_linear" x1="29" y1="167" x2="29" y2="276" gradientUnits="userSpaceOnUse">
<stop stop-color="#FBC43B"/>
<stop offset="1" stop-color="#F7931E"/>
</linearGradient>
<linearGradient id="paint1_linear" x1="113" y1="0" x2="113" y2="276" gradientUnits="userSpaceOnUse">
<stop stop-color="#FBC43B"/>
<stop offset="1" stop-color="#F7931E"/>
</linearGradient>
<linearGradient id="paint2_linear" x1="197" y1="81" x2="197" y2="276" gradientUnits="userSpaceOnUse">
<stop stop-color="#FBC43B"/>
<stop offset="1" stop-color="#F7931E"/>
</linearGradient>
</defs>
</svg>
