<svg width="260" height="56" viewBox="0 0 260 56" fill="none" xmlns="http://www.w3.org/2000/svg">
<rect x="1" y="1" width="258" height="54" rx="9" stroke="url(#paint0_linear)" stroke-width="2"/>
<path d="M48.5825 34V22.5469H50.8325L55.52 30.1953V22.5469H57.6684V34H55.3481L50.7309 26.5312V34H48.5825ZM71.0897 34H68.5741L67.5741 31.3984H62.9959L62.0506 34H59.5975L64.0584 22.5469H66.5037L71.0897 34ZM66.8319 29.4688L65.2537 25.2188L63.7069 29.4688H66.8319ZM63.4647 21.9141H62.4647C62.4595 21.7943 62.4569 21.7005 62.4569 21.6328C62.4569 21.0859 62.5897 20.6667 62.8553 20.375C63.1209 20.0781 63.4621 19.9297 63.8787 19.9297C64.061 19.9297 64.2303 19.9505 64.3866 19.9922C64.5428 20.0286 64.8267 20.1406 65.2381 20.3281C65.6548 20.5104 65.9803 20.6016 66.2147 20.6016C66.3814 20.6016 66.5194 20.5495 66.6287 20.4453C66.7433 20.3411 66.8162 20.1667 66.8475 19.9219H67.8631C67.8579 20.625 67.7251 21.1276 67.4647 21.4297C67.2095 21.7318 66.8787 21.8828 66.4725 21.8828C66.2954 21.8828 66.1209 21.8646 65.9491 21.8281C65.8293 21.7969 65.5298 21.6901 65.0506 21.5078C64.5715 21.3255 64.2225 21.2344 64.0037 21.2344C63.8371 21.2344 63.7069 21.2865 63.6131 21.3906C63.5194 21.4896 63.4699 21.6641 63.4647 21.9141ZM72.4953 28.3438C72.4953 27.1771 72.6698 26.1979 73.0187 25.4062C73.2792 24.8229 73.6333 24.2995 74.0812 23.8359C74.5344 23.3724 75.0292 23.0286 75.5656 22.8047C76.2792 22.5026 77.1021 22.3516 78.0344 22.3516C79.7219 22.3516 81.0708 22.875 82.0812 23.9219C83.0969 24.9688 83.6047 26.4245 83.6047 28.2891C83.6047 30.138 83.1021 31.5859 82.0969 32.6328C81.0917 33.6745 79.7479 34.1953 78.0656 34.1953C76.3625 34.1953 75.0083 33.6771 74.0031 32.6406C72.9979 31.599 72.4953 30.1667 72.4953 28.3438ZM74.8781 28.2656C74.8781 29.5625 75.1776 30.5469 75.7766 31.2188C76.3755 31.8854 77.1359 32.2188 78.0578 32.2188C78.9797 32.2188 79.7349 31.888 80.3234 31.2266C80.9172 30.5599 81.2141 29.5625 81.2141 28.2344C81.2141 26.9219 80.925 25.9427 80.3469 25.2969C79.774 24.651 79.0109 24.3281 78.0578 24.3281C77.1047 24.3281 76.3365 24.6562 75.7531 25.3125C75.1698 25.9635 74.8781 26.9479 74.8781 28.2656ZM93.7284 34V24.4844H90.33V22.5469H99.4316V24.4844H96.0409V34H93.7284ZM101.572 34V22.5469H110.064V24.4844H103.884V27.0234H109.634V28.9531H103.884V32.0703H110.283V34H101.572ZM112.907 34V22.5469H115.157L119.844 30.1953V22.5469H121.993V34H119.672L115.055 26.5312V34H112.907ZM125.094 34V22.5469H127.406V27.0547H131.938V22.5469H134.25V34H131.938V28.9922H127.406V34H125.094ZM136.82 28.3438C136.82 27.1771 136.994 26.1979 137.343 25.4062C137.604 24.8229 137.958 24.2995 138.406 23.8359C138.859 23.3724 139.354 23.0286 139.89 22.8047C140.604 22.5026 141.426 22.3516 142.359 22.3516C144.046 22.3516 145.395 22.875 146.406 23.9219C147.421 24.9688 147.929 26.4245 147.929 28.2891C147.929 30.138 147.426 31.5859 146.421 32.6328C145.416 33.6745 144.072 34.1953 142.39 34.1953C140.687 34.1953 139.333 33.6771 138.327 32.6406C137.322 31.599 136.82 30.1667 136.82 28.3438ZM139.202 28.2656C139.202 29.5625 139.502 30.5469 140.101 31.2188C140.7 31.8854 141.46 32.2188 142.382 32.2188C143.304 32.2188 144.059 31.888 144.648 31.2266C145.242 30.5599 145.538 29.5625 145.538 28.2344C145.538 26.9219 145.249 25.9427 144.671 25.2969C144.098 24.651 143.335 24.3281 142.382 24.3281C141.429 24.3281 140.661 24.6562 140.077 25.3125C139.494 25.9635 139.202 26.9479 139.202 28.2656ZM162.803 29.7891L165.045 30.5C164.701 31.75 164.128 32.6797 163.326 33.2891C162.529 33.8932 161.516 34.1953 160.287 34.1953C158.766 34.1953 157.516 33.6771 156.537 32.6406C155.558 31.599 155.068 30.1771 155.068 28.375C155.068 26.4688 155.561 24.9896 156.545 23.9375C157.529 22.8802 158.824 22.3516 160.428 22.3516C161.829 22.3516 162.967 22.7656 163.842 23.5938C164.363 24.0833 164.753 24.7865 165.014 25.7031L162.725 26.25C162.589 25.6562 162.305 25.1875 161.873 24.8438C161.446 24.5 160.925 24.3281 160.311 24.3281C159.462 24.3281 158.772 24.6328 158.24 25.2422C157.714 25.8516 157.451 26.8385 157.451 28.2031C157.451 29.651 157.712 30.6823 158.232 31.2969C158.753 31.9115 159.43 32.2188 160.264 32.2188C160.878 32.2188 161.407 32.0234 161.85 31.6328C162.292 31.2422 162.61 30.6276 162.803 29.7891ZM167.208 28.3438C167.208 27.1771 167.383 26.1979 167.732 25.4062C167.992 24.8229 168.346 24.2995 168.794 23.8359C169.247 23.3724 169.742 23.0286 170.279 22.8047C170.992 22.5026 171.815 22.3516 172.747 22.3516C174.435 22.3516 175.784 22.875 176.794 23.9219C177.81 24.9688 178.318 26.4245 178.318 28.2891C178.318 30.138 177.815 31.5859 176.81 32.6328C175.805 33.6745 174.461 34.1953 172.779 34.1953C171.076 34.1953 169.721 33.6771 168.716 32.6406C167.711 31.599 167.208 30.1667 167.208 28.3438ZM169.591 28.2656C169.591 29.5625 169.891 30.5469 170.49 31.2188C171.089 31.8854 171.849 32.2188 172.771 32.2188C173.693 32.2188 174.448 31.888 175.037 31.2266C175.63 30.5599 175.927 29.5625 175.927 28.2344C175.927 26.9219 175.638 25.9427 175.06 25.2969C174.487 24.651 173.724 24.3281 172.771 24.3281C171.818 24.3281 171.05 24.6562 170.466 25.3125C169.883 25.9635 169.591 26.9479 169.591 28.2656ZM180.794 34V22.5469H183.044L187.731 30.1953V22.5469H189.88V34H187.559L182.942 26.5312V34H180.794ZM195.551 34V24.4844H192.152V22.5469H201.254V24.4844H197.863V34H195.551ZM212.535 34H210.019L209.019 31.3984H204.441L203.496 34H201.043L205.503 22.5469H207.949L212.535 34ZM208.277 29.4688L206.699 25.2188L205.152 29.4688H208.277Z" fill="white"/>
<defs>
<linearGradient id="paint0_linear" x1="14.5" y1="28" x2="260" y2="28" gradientUnits="userSpaceOnUse">
<stop stop-color="#F8D57E"/>
<stop offset="1" stop-color="#E6A501"/>
</linearGradient>
</defs>
</svg>
